<svg id="Group_2182" data-name="Group 2182" xmlns="http://www.w3.org/2000/svg" width="141.9" height="22.5" viewBox="0 0 141.9 22.5">
  <path id="Path_36839" data-name="Path 36839" d="M-1290.318-2309.519l9.032-9.188a.647.647,0,0,0-.438-1.125h-2.344a.794.794,0,0,0-.593.313l-8.813,9.094v-8.657a.761.761,0,0,0-.75-.75h-1.813a.74.74,0,0,0-.749.75v20.375a.739.739,0,0,0,.749.75h1.813a.76.76,0,0,0,.75-.75v-9.718l9.094,10.249a.676.676,0,0,0,.562.219h2.5a.661.661,0,0,0,.563-1.031Z" transform="translate(1340.126 2320.144)" fill="#fff"/>
  <path id="Path_36840" data-name="Path 36840" d="M-1312.5-2320.144a11.2,11.2,0,0,0-11.219,11.281,11.151,11.151,0,0,0,11.219,11.219,11.177,11.177,0,0,0,11.25-11.219A11.23,11.23,0,0,0-1312.5-2320.144Zm0,19.375a8.116,8.116,0,0,1-8.094-8.094,8.19,8.19,0,0,1,8.094-8.156,8.2,8.2,0,0,1,8.125,8.156A8.122,8.122,0,0,1-1312.5-2300.769Z" transform="translate(1340.126 2320.144)" fill="#fff"/>
  <path id="Path_36841" data-name="Path 36841" d="M-1326.095-2319.832h-13.437a.594.594,0,0,0-.594.594v1.75a.594.594,0,0,0,.594.594h5.093v18.344a.614.614,0,0,0,.594.593h2.063a.614.614,0,0,0,.593-.593v-18.344h5.094a.594.594,0,0,0,.594-.594v-1.75A.594.594,0,0,0-1326.095-2319.832Z" transform="translate(1340.126 2320.144)" fill="#fff"/>
  <path id="Path_36842" data-name="Path 36842" d="M-1272.647-2319.8l-.135-.03h-4.617c-.014,0-.026.005-.04.006l-.783-.006a.348.348,0,0,0-.255.587l3.038,3.212v17.483a.614.614,0,0,0,.594.593h2.063a.615.615,0,0,0,.593-.593v-20.688A.609.609,0,0,0-1272.647-2319.8Z" transform="translate(1340.126 2320.144)" fill="#fff"/>
  <path id="Path_36843" data-name="Path 36843" d="M-1202.85-2306.8a6.937,6.937,0,0,0,4.624-6.344,6.742,6.742,0,0,0-6.812-6.688H-1216.2a.526.526,0,0,0-.384.884l2.455,2.636v17.762a.593.593,0,0,0,.594.593h2.031a.6.6,0,0,0,.594-.594v-7.968l.063-2.687v-7.594h5.532a3.8,3.8,0,0,1,3.84,3.6,3.882,3.882,0,0,1-3.81,4h-4.319a.485.485,0,0,0-.35.822l1.467,1.528a1.1,1.1,0,0,0,.792.337h1.5l4.156,8.281a.576.576,0,0,0,.5.281h2.438a.591.591,0,0,0,.53-.906Z" transform="translate(1340.126 2320.144)" fill="#fff"/>
  <path id="Path_36844" data-name="Path 36844" d="M-1260.377-2310.55c-2.594-1.063-3.969-2.157-3.969-3.938,0-1.156.906-2.812,3.531-2.812a9.612,9.612,0,0,1,4.219,1.562.738.738,0,0,0,1.093-.312c.251-.375.532-.813.782-1.188a.743.743,0,0,0-.187-1.062,10.59,10.59,0,0,0-5.782-1.844c-4.969,0-6.844,3.344-6.844,5.781,0,3.625,2.5,5.281,5.687,6.625,3.094,1.281,4.72,2.469,4.72,4.344,0,1.594-1.376,2.906-3.532,2.906-2.406,0-4.812-2-5-2.156a.707.707,0,0,0-1.062.25c-.281.406-.531.875-.813,1.281a.656.656,0,0,0,.188,1,10.114,10.114,0,0,0,6.718,2.469c4.063,0,6.969-2.656,6.969-5.906C-1253.659-2307.363-1256.753-2309.082-1260.377-2310.55Z" transform="translate(1340.126 2320.144)" fill="#fff"/>
  <path id="Path_36845" data-name="Path 36845" d="M-1226.786-2319.8a.732.732,0,0,0-.532-.344h-5.187a.341.341,0,0,0-.25.573l3.013,3.235-8.013,17.567a.551.551,0,0,0,.531.812h1.969a.785.785,0,0,0,.719-.468c.625-1.438,1.281-2.844,1.906-4.282l1.219-2.687,3.812-8.563h.157l3.843,8.563,0,0h-6.691a.486.486,0,0,0-.35.823l1.37,1.42a1.418,1.418,0,0,0,1.02.433h5.834l0,.007,1.937,4.282a.728.728,0,0,0,.719.468h1.969a.552.552,0,0,0,.531-.812Z" transform="translate(1340.126 2320.144)" fill="#fff"/>
  <path id="Path_36846" data-name="Path 36846" d="M-1237.028-2317.488v-1.75a.594.594,0,0,0-.593-.594h-13.438a.6.6,0,0,0-.6.594v1.75a.6.6,0,0,0,.6.594h5.094v18.344a.613.613,0,0,0,.593.593h2.062a.614.614,0,0,0,.594-.593v-18.344h5.095A.594.594,0,0,0-1237.028-2317.488Z" transform="translate(1340.126 2320.144)" fill="#fff"/>
</svg>
